<svg xmlns="http://www.w3.org/2000/svg" version="1.1" xmlns:xlink="http://www.w3.org/1999/xlink" xmlns:svgjs="http://svgjs.dev/svgjs" width="1000" height="1000" viewBox="0 0 1000 1000"><rect width="1000" height="1000" fill="#ffffff"></rect><g transform="matrix(0.7,0,0,0.7,149.57575757575756,282.1265587044535)"><svg viewBox="0 0 396 247" data-background-color="#ffffff" preserveAspectRatio="xMidYMid meet" height="623" width="1000" xmlns="http://www.w3.org/2000/svg" xmlns:xlink="http://www.w3.org/1999/xlink"><g id="tight-bounds" transform="matrix(1,0,0,1,0.2400000000000091,-0.09999999999999432)"><svg viewBox="0 0 395.52 247.2" height="247.2" width="395.52"><g><svg></svg></g><g><svg viewBox="0 0 395.52 247.2" height="247.2" width="395.52"><g transform="matrix(1,0,0,1,75.54432,58.39826337579683)"><svg viewBox="0 0 244.43135999999998 130.40347324840633" height="130.40347324840633" width="244.43135999999998"><g><svg viewBox="0 0 244.43135999999998 130.40347324840633" height="130.40347324840633" width="244.43135999999998"><g><svg viewBox="0 0 244.43135999999998 130.40347324840633" height="130.40347324840633" width="244.43135999999998"><g><svg viewBox="0 0 244.43135999999998 130.40347324840633" height="130.40347324840633" width="244.43135999999998"><g id="textblocktransform"><svg viewBox="0 0 244.43135999999998 130.40347324840633" height="130.40347324840633" width="244.43135999999998" id="textblock"><g><svg viewBox="0 0 244.43135999999998 80.38710434573885" height="80.38710434573885" width="244.43135999999998"><g transform="matrix(1,0,0,1,0,0)"><svg width="244.43135999999998" viewBox="2 -35.349998474121094 108.99832916259766 35.849998474121094" height="80.38710434573885" data-palette-color="#124948"><path d="M11.15 0L2.2 0Q2 0 2-0.25L2-0.25 2.1-34.6Q2.1-34.8 2.3-34.8L2.3-34.8 11.9-34.8Q14.75-34.8 17-33.43 19.25-32.05 20.55-29.8 21.85-27.55 21.85-24.9L21.85-24.9Q21.85-22.75 20.88-20.9 19.9-19.05 18.55-17.9L18.55-17.9Q20-16.45 20.8-14.55 21.6-12.65 21.6-10.55L21.6-10.55Q21.6-7.65 20.2-5.25 18.8-2.85 16.43-1.43 14.05 0 11.15 0L11.15 0ZM8.1-28.85L8.1-21 11.9-21Q13.65-21 14.73-22.23 15.8-23.45 15.8-24.9L15.8-24.9Q15.8-26.5 14.65-27.68 13.5-28.85 11.9-28.85L11.9-28.85 8.1-28.85ZM8.1-14.95L8.05-6.1 11.15-6.1Q12.95-6.1 14.25-7.43 15.55-8.75 15.55-10.55L15.55-10.55Q15.55-12.35 14.25-13.65 12.95-14.95 11.15-14.95L11.15-14.95 8.1-14.95ZM34.45 0.5L34.45 0.5Q31.75 0.5 29.52-0.88 27.3-2.25 25.95-4.53 24.6-6.8 24.6-9.55L24.6-9.55 24.65-25.4Q24.65-28.15 25.97-30.4 27.3-32.65 29.55-34 31.8-35.35 34.45-35.35L34.45-35.35Q37.15-35.35 39.35-34 41.55-32.65 42.87-30.4 44.2-28.15 44.2-25.4L44.2-25.4 44.25-9.55Q44.25-6.8 42.92-4.53 41.6-2.25 39.37-0.88 37.15 0.5 34.45 0.5ZM34.45-5.55L34.45-5.55Q35.95-5.55 37.07-6.78 38.2-8 38.2-9.55L38.2-9.55 38.15-25.4Q38.15-27.05 37.1-28.2 36.05-29.35 34.45-29.35L34.45-29.35Q32.9-29.35 31.8-28.23 30.7-27.1 30.7-25.4L30.7-25.4 30.7-9.55Q30.7-7.9 31.8-6.73 32.9-5.55 34.45-5.55ZM53.9 0L48.25 0Q48.05 0 48.05-0.25L48.05-0.25 48.15-34.6Q48.15-34.8 48.34-34.8L48.34-34.8 58.45-34.8Q61.15-34.8 63.42-33.48 65.7-32.15 67.05-29.93 68.4-27.7 68.4-24.9L68.4-24.9Q68.4-23.05 67.84-21.58 67.3-20.1 66.55-19.07 65.8-18.05 65.2-17.55L65.2-17.55Q67.9-14.55 67.9-10.5L67.9-10.5 67.95-0.25Q67.95 0 67.7 0L67.7 0 62.05 0Q61.84 0 61.84-0.15L61.84-0.15 61.84-10.5Q61.84-12.3 60.57-13.63 59.3-14.95 57.45-14.95L57.45-14.95 54.15-14.95 54.09-0.25Q54.09 0 53.9 0L53.9 0ZM54.15-28.8L54.15-20.95 58.45-20.95Q60-20.95 61.2-22.1 62.4-23.25 62.4-24.9L62.4-24.9Q62.4-26.5 61.22-27.65 60.05-28.8 58.45-28.8L58.45-28.8 54.15-28.8ZM80.49 0.5L80.49 0.5Q77.79 0.5 75.57-0.88 73.34-2.25 72.02-4.53 70.69-6.8 70.69-9.55L70.69-9.55 70.69-11.85Q70.69-12.1 70.94-12.1L70.94-12.1 76.54-12.1Q76.74-12.1 76.74-11.85L76.74-11.85 76.74-9.55Q76.74-7.9 77.84-6.73 78.94-5.55 80.49-5.55L80.49-5.55Q82.04-5.55 83.14-6.75 84.24-7.95 84.24-9.55L84.24-9.55Q84.24-11.4 81.84-12.75L81.84-12.75Q81.04-13.2 79.34-14.15 77.64-15.1 76.14-15.95L76.14-15.95Q73.39-17.55 72.07-19.98 70.74-22.4 70.74-25.45L70.74-25.45Q70.74-28.25 72.09-30.48 73.44-32.7 75.67-34 77.89-35.3 80.49-35.3L80.49-35.3Q83.14-35.3 85.37-33.98 87.59-32.65 88.92-30.43 90.24-28.2 90.24-25.45L90.24-25.45 90.24-21.35Q90.24-21.15 90.04-21.15L90.04-21.15 84.44-21.15Q84.24-21.15 84.24-21.35L84.24-21.35 84.19-25.45Q84.19-27.2 83.09-28.3 81.99-29.4 80.49-29.4L80.49-29.4Q78.94-29.4 77.84-28.23 76.74-27.05 76.74-25.45L76.74-25.45Q76.74-23.8 77.44-22.7 78.14-21.6 79.99-20.6L79.99-20.6Q80.24-20.45 80.97-20.08 81.69-19.7 82.54-19.23 83.39-18.75 84.07-18.4 84.74-18.05 84.89-17.95L84.89-17.95Q87.39-16.55 88.84-14.53 90.29-12.5 90.29-9.55L90.29-9.55Q90.29-6.7 88.97-4.42 87.64-2.15 85.42-0.83 83.19 0.5 80.49 0.5ZM91.09-0.25L91.09-0.25 97.29-34.6Q97.34-34.8 97.54-34.8L97.54-34.8 104.79-34.8Q104.99-34.8 105.04-34.6L105.04-34.6 110.99-0.25Q111.04 0 110.79 0L110.79 0 105.24 0Q105.04 0 104.99-0.25L104.99-0.25 104.44-3.9 97.64-3.9 97.09-0.25Q97.04 0 96.84 0L96.84 0 91.29 0Q91.09 0 91.09-0.25ZM100.89-23.3L98.64-9.25 103.44-9.25 101.39-23.3 101.09-25.15 100.89-23.3Z" opacity="1" transform="matrix(1,0,0,1,0,0)" fill="#000000" class="wordmark-text-0" data-fill-palette-color="primary" id="text-0"></path></svg></g></svg></g><g transform="matrix(1,0,0,1,0,99.3645703912635)"><svg viewBox="0 0 244.43135999999998 31.03890285714285" height="31.03890285714285" width="244.43135999999998"><g transform="matrix(1,0,0,1,0,0)"><svg width="244.43135999999998" viewBox="0 -50 393.75 50" height="31.03890285714285" data-palette-color="#abddd9"><path d="M43.75-6.25L0-6.25 0-50 43.75-50 43.75-43.75 12.5-43.75 12.5-31.25 37.5-31.25 37.5-25 12.5-25 12.5-12.5 43.75-12.5 43.75-6.25ZM62.5-6.25L50-6.25 50-12.5 56.25-12.5 56.25-18.75 62.5-18.75 62.5-25 56.25-25 56.25-31.25 50-31.25 50-37.5 62.5-37.5 62.5-31.25 68.75-31.25 68.75-25 75-25 75-31.25 81.25-31.25 81.25-37.5 93.75-37.5 93.75-31.25 87.5-31.25 87.5-25 81.25-25 81.25-18.75 87.5-18.75 87.5-12.5 93.75-12.5 93.75-6.25 81.25-6.25 81.25-12.5 75-12.5 75-18.75 68.75-18.75 68.75-12.5 62.5-12.5 62.5-6.25ZM143.75-6.25L106.25-6.25 106.25-12.5 100-12.5 100-31.25 106.25-31.25 106.25-37.5 143.75-37.5 143.75-31.25 112.5-31.25 112.5-12.5 143.75-12.5 143.75-6.25ZM162.5-6.25L150-6.25 150-50 162.5-50 162.5-37.5 187.5-37.5 187.5-31.25 193.75-31.25 193.75-6.25 181.25-6.25 181.25-31.25 162.5-31.25 162.5-6.25ZM243.75-6.25L206.25-6.25 206.25-12.5 200-12.5 200-18.75 206.25-18.75 206.25-25 231.25-25 231.25-31.25 206.25-31.25 206.25-37.5 237.5-37.5 237.5-31.25 243.75-31.25 243.75-6.25ZM212.5-18.75L212.5-12.5 231.25-12.5 231.25-18.75 212.5-18.75ZM262.5-6.25L250-6.25 250-37.5 287.5-37.5 287.5-31.25 293.75-31.25 293.75-6.25 281.25-6.25 281.25-31.25 262.5-31.25 262.5-6.25ZM337.5 0L306.25 0 306.25-6.25 331.25-6.25 331.25-12.5 306.25-12.5 306.25-18.75 300-18.75 300-31.25 306.25-31.25 306.25-37.5 343.75-37.5 343.75-6.25 337.5-6.25 337.5 0ZM312.5-31.25L312.5-18.75 331.25-18.75 331.25-31.25 312.5-31.25ZM387.5-6.25L356.25-6.25 356.25-12.5 350-12.5 350-31.25 356.25-31.25 356.25-37.5 387.5-37.5 387.5-31.25 393.75-31.25 393.75-18.75 362.5-18.75 362.5-12.5 387.5-12.5 387.5-6.25ZM362.5-31.25L362.5-25 381.25-25 381.25-31.25 362.5-31.25Z" opacity="1" transform="matrix(1,0,0,1,0,0)" fill="#000000" class="slogan-text-1" data-fill-palette-color="secondary" id="text-1"></path></svg></g></svg></g></svg></g></svg></g></svg></g></svg></g></svg></g><g><path d="M245.816 0c68.262 0 123.6 55.338 123.6 123.6 0 68.262-55.338 123.6-123.6 123.6-40.199 0-75.915-19.19-98.489-48.91h4.592c21.981 27.597 55.873 45.285 93.897 45.285 66.261 0 119.975-53.715 119.975-119.975 0-66.261-53.715-119.975-119.975-119.975-38.023 0-71.915 17.688-93.897 45.285l-4.592 0c22.573-29.719 58.29-48.91 98.489-48.91z" fill="#000000" stroke="transparent" data-fill-palette-color="tertiary"></path></g></svg></g><defs></defs></svg><rect width="395.52" height="247.2" fill="none" stroke="none" visibility="hidden"></rect></g></svg></g></svg>