<svg xmlns="http://www.w3.org/2000/svg" version="1.1" xmlns:xlink="http://www.w3.org/1999/xlink" xmlns:svgjs="http://svgjs.dev/svgjs" width="1000" height="1000" viewBox="0 0 1000 1000"><rect width="1000" height="1000" fill="#000000"></rect><g transform="matrix(0.7,0,0,0.7,149.84897959183672,150.19913061224486)"><svg viewBox="0 0 343 343" data-background-color="#ffbe79" preserveAspectRatio="xMidYMid meet" height="999" width="1000" xmlns="http://www.w3.org/2000/svg" xmlns:xlink="http://www.w3.org/1999/xlink"><g id="tight-bounds" transform="matrix(1,0,0,1,0.07400000000001228,0.07400000000001228)"><svg viewBox="0 0 342.8515585177538 342.8515585177538" height="342.8515585177538" width="342.8515585177538"><g><svg></svg></g><g><svg viewBox="0 0 342.8515585177538 342.8515585177538" height="342.8515585177538" width="342.8515585177538"><g><path d="M0 171.426c0-94.676 76.75-171.426 171.426-171.426 94.676 0 171.426 76.75 171.426 171.426 0 94.676-76.75 171.426-171.426 171.426-94.676 0-171.426-76.75-171.426-171.426zM171.426 340.46c93.355 0 169.034-75.679 169.034-169.034 0-93.355-75.679-169.034-169.034-169.034-93.355 0-169.034 75.679-169.034 169.034 0 93.355 75.679 169.034 169.034 169.034z" data-fill-palette-color="tertiary" fill="#ffffff" stroke="transparent"></path><ellipse rx="164.56874808852183" ry="164.56874808852183" cx="171.4257792588769" cy="171.4257792588769" fill="#ffffff" stroke="transparent" stroke-width="0" fill-opacity="1" data-fill-palette-color="tertiary"></ellipse></g><g transform="matrix(1,0,0,1,64.84655864529836,109.73255860859469)"><svg viewBox="0 0 213.15844122715708 123.38644130056443" height="123.38644130056443" width="213.15844122715708"><g><svg viewBox="0 0 213.15844122715708 123.38644130056443" height="123.38644130056443" width="213.15844122715708"><g><svg viewBox="0 0 213.15844122715708 123.38644130056443" height="123.38644130056443" width="213.15844122715708"><g transform="matrix(1,0,0,1,0,74.21533425404846)"><svg viewBox="0 0 213.15844122715708 49.17110704651597" height="49.17110704651597" width="213.15844122715708"><g id="textblocktransform"><svg viewBox="0 0 213.15844122715708 49.17110704651597" height="49.17110704651597" width="213.15844122715708" id="textblock"><g><svg viewBox="0 0 213.15844122715708 26.52054556906835" height="26.52054556906835" width="213.15844122715708"><g transform="matrix(1,0,0,1,0,0)"><svg width="213.15844122715708" viewBox="5.699999809265137 -37.099998474121094 300.17999267578125 37.349998474121094" height="26.52054556906835" data-palette-color="#ffbe79"><path d="M27.75-18.05Q31.2-17.3 33.08-15.08 34.95-12.85 34.95-9.35L34.95-9.35Q34.95-4.85 31.63-2.43 28.3 0 21.8 0L21.8 0 5.7 0 5.7-35 20.8-35Q26.65-35 29.88-32.65 33.1-30.3 33.1-26L33.1-26Q33.1-23.1 31.68-21.08 30.25-19.05 27.75-18.05L27.75-18.05ZM20.55-31.95L9.4-31.95 9.4-19.25 20.55-19.25Q24.8-19.25 27.1-20.88 29.4-22.5 29.4-25.6L29.4-25.6Q29.4-28.7 27.1-30.33 24.8-31.95 20.55-31.95L20.55-31.95ZM21.75-3.05Q26.45-3.05 28.85-4.65 31.25-6.25 31.25-9.65L31.25-9.65Q31.25-16.2 21.75-16.2L21.75-16.2 9.4-16.2 9.4-3.05 21.75-3.05ZM53.4 0.25Q49.6 0.25 46.55-1.48 43.5-3.2 41.75-6.25 40-9.3 40-13.15L40-13.15Q40-17 41.75-20.05 43.5-23.1 46.55-24.8 49.6-26.5 53.4-26.5L53.4-26.5Q57.2-26.5 60.25-24.8 63.3-23.1 65.02-20.05 66.75-17 66.75-13.15L66.75-13.15Q66.75-9.3 65.02-6.25 63.3-3.2 60.25-1.48 57.2 0.25 53.4 0.25L53.4 0.25ZM53.4-2.9Q56.2-2.9 58.42-4.17 60.65-5.45 61.9-7.8 63.15-10.15 63.15-13.15L63.15-13.15Q63.15-16.15 61.9-18.5 60.65-20.85 58.42-22.13 56.2-23.4 53.4-23.4L53.4-23.4Q50.6-23.4 48.37-22.13 46.15-20.85 44.87-18.5 43.6-16.15 43.6-13.15L43.6-13.15Q43.6-10.15 44.87-7.8 46.15-5.45 48.37-4.17 50.6-2.9 53.4-2.9L53.4-2.9ZM77.4-21.15Q78.65-23.8 81.12-25.15 83.6-26.5 87.25-26.5L87.25-26.5 87.25-23.05 86.4-23.1Q82.25-23.1 79.9-20.55 77.55-18 77.55-13.4L77.55-13.4 77.55 0 74 0 74-26.3 77.4-26.3 77.4-21.15ZM100.89 0.25Q97.69 0.25 94.77-0.68 91.84-1.6 90.19-3L90.19-3 91.79-5.8Q93.44-4.5 95.94-3.68 98.44-2.85 101.14-2.85L101.14-2.85Q104.74-2.85 106.47-3.98 108.19-5.1 108.19-7.15L108.19-7.15Q108.19-8.6 107.24-9.43 106.29-10.25 104.84-10.68 103.39-11.1 100.99-11.5L100.99-11.5Q97.79-12.1 95.84-12.73 93.89-13.35 92.52-14.85 91.14-16.35 91.14-19L91.14-19Q91.14-22.3 93.89-24.4 96.64-26.5 101.54-26.5L101.54-26.5Q104.09-26.5 106.64-25.83 109.19-25.15 110.84-24.05L110.84-24.05 109.29-21.2Q106.04-23.45 101.54-23.45L101.54-23.45Q98.14-23.45 96.42-22.25 94.69-21.05 94.69-19.1L94.69-19.1Q94.69-17.6 95.67-16.7 96.64-15.8 98.09-15.38 99.54-14.95 102.09-14.5L102.09-14.5Q105.24-13.9 107.14-13.3 109.04-12.7 110.39-11.25 111.74-9.8 111.74-7.25L111.74-7.25Q111.74-3.8 108.87-1.78 105.99 0.25 100.89 0.25L100.89 0.25ZM138.74-26.3L142.29-26.3 142.29 0 138.89 0 138.89-5.2Q137.29-2.55 134.67-1.15 132.04 0.25 128.74 0.25L128.74 0.25Q125.04 0.25 122.04-1.45 119.04-3.15 117.34-6.2 115.64-9.25 115.64-13.15L115.64-13.15Q115.64-17.05 117.34-20.1 119.04-23.15 122.04-24.83 125.04-26.5 128.74-26.5L128.74-26.5Q131.94-26.5 134.52-25.18 137.09-23.85 138.74-21.3L138.74-21.3 138.74-26.3ZM129.04-2.9Q131.79-2.9 134.02-4.17 136.24-5.45 137.52-7.8 138.79-10.15 138.79-13.15L138.79-13.15Q138.79-16.15 137.52-18.5 136.24-20.85 134.02-22.13 131.79-23.4 129.04-23.4L129.04-23.4Q126.24-23.4 124.02-22.13 121.79-20.85 120.52-18.5 119.24-16.15 119.24-13.15L119.24-13.15Q119.24-10.15 120.52-7.8 121.79-5.45 124.02-4.17 126.24-2.9 129.04-2.9L129.04-2.9ZM180.34-35.3Q187.14-35.3 191.06-31.33 194.99-27.35 194.99-19.85L194.99-19.85 194.99 0 191.34 0 191.34-10.3 169.34-10.3 169.34 0 165.74 0 165.74-19.85Q165.74-27.35 169.66-31.33 173.59-35.3 180.34-35.3L180.34-35.3ZM169.34-13.5L191.34-13.5 191.34-20.2Q191.34-26.05 188.44-29.03 185.54-32 180.34-32L180.34-32Q175.14-32 172.24-29.03 169.34-26.05 169.34-20.2L169.34-20.2 169.34-13.5ZM212.73 0.25Q209.18 0.25 207.26-1.75 205.33-3.75 205.33-7.3L205.33-7.3 205.33-37.1 208.88-37.1 208.88-7.6Q208.88-5.25 209.98-4.03 211.08-2.8 213.28-2.8L213.28-2.8Q214.68-2.8 215.68-3.25L215.68-3.25 215.93-0.3Q214.38 0.25 212.73 0.25L212.73 0.25ZM240.73-26.3L244.28-26.3 244.28 0 240.88 0 240.88-5.2Q239.28-2.55 236.66-1.15 234.03 0.25 230.73 0.25L230.73 0.25Q227.03 0.25 224.03-1.45 221.03-3.15 219.33-6.2 217.63-9.25 217.63-13.15L217.63-13.15Q217.63-17.05 219.33-20.1 221.03-23.15 224.03-24.83 227.03-26.5 230.73-26.5L230.73-26.5Q233.93-26.5 236.51-25.18 239.08-23.85 240.73-21.3L240.73-21.3 240.73-26.3ZM231.03-2.9Q233.78-2.9 236.01-4.17 238.23-5.45 239.51-7.8 240.78-10.15 240.78-13.15L240.78-13.15Q240.78-16.15 239.51-18.5 238.23-20.85 236.01-22.13 233.78-23.4 231.03-23.4L231.03-23.4Q228.23-23.4 226.01-22.13 223.78-20.85 222.51-18.5 221.23-16.15 221.23-13.15L221.23-13.15Q221.23-10.15 222.51-7.8 223.78-5.45 226.01-4.17 228.23-2.9 231.03-2.9L231.03-2.9ZM265.08 0.25Q261.18 0.25 258.1-1.45 255.03-3.15 253.28-6.23 251.53-9.3 251.53-13.15L251.53-13.15Q251.53-17 253.28-20.05 255.03-23.1 258.1-24.8 261.18-26.5 265.08-26.5L265.08-26.5Q268.48-26.5 271.15-25.18 273.83-23.85 275.38-21.3L275.38-21.3 272.73-19.5Q271.43-21.45 269.43-22.43 267.43-23.4 265.08-23.4L265.08-23.4Q262.23-23.4 259.95-22.13 257.68-20.85 256.4-18.5 255.13-16.15 255.13-13.15L255.13-13.15Q255.13-10.1 256.4-7.78 257.68-5.45 259.95-4.17 262.23-2.9 265.08-2.9L265.08-2.9Q267.43-2.9 269.43-3.85 271.43-4.8 272.73-6.75L272.73-6.75 275.38-4.95Q273.83-2.4 271.13-1.07 268.43 0.25 265.08 0.25L265.08 0.25ZM302.32-26.3L305.88-26.3 305.88 0 302.48 0 302.48-5.2Q300.88-2.55 298.25-1.15 295.63 0.25 292.32 0.25L292.32 0.25Q288.63 0.25 285.63-1.45 282.63-3.15 280.93-6.2 279.23-9.25 279.23-13.15L279.23-13.15Q279.23-17.05 280.93-20.1 282.63-23.15 285.63-24.83 288.63-26.5 292.32-26.5L292.32-26.5Q295.53-26.5 298.1-25.18 300.68-23.85 302.32-21.3L302.32-21.3 302.32-26.3ZM292.63-2.9Q295.38-2.9 297.6-4.17 299.82-5.45 301.1-7.8 302.38-10.15 302.38-13.15L302.38-13.15Q302.38-16.15 301.1-18.5 299.82-20.85 297.6-22.13 295.38-23.4 292.63-23.4L292.63-23.4Q289.82-23.4 287.6-22.13 285.38-20.85 284.1-18.5 282.82-16.15 282.82-13.15L282.82-13.15Q282.82-10.15 284.1-7.8 285.38-5.45 287.6-4.17 289.82-2.9 292.63-2.9L292.63-2.9Z" opacity="1" transform="matrix(1,0,0,1,0,0)" fill="#000000" class="wordmark-text-0" data-fill-palette-color="quaternary" id="text-0"></path></svg></g></svg></g><g transform="matrix(1,0,0,1,0,32.78140988483173)"><svg viewBox="0 0 213.15844122715708 16.38969716168424" height="16.38969716168424" width="213.15844122715708"><g transform="matrix(1,0,0,1,0,0)"><svg width="213.15844122715708" viewBox="4.550000190734863 -35.650001525878906 468.8500061035156 36.05000305175781" height="16.38969716168424" data-palette-color="#ffbe79"><path d="M26.3 0L4.55 0 4.55-35.25 26.3-35.25 26.3-32.6 7.6-32.6 7.6-19.25 25.3-19.25 25.3-16.55 7.6-16.55 7.6-2.65 26.3-2.65 26.3 0ZM88.53-35.25L75.83-18.05 89.23 0 85.58 0 74.08-15.7 62.63 0 58.93 0 72.33-18.1 59.68-35.25 63.28-35.25 74.13-20.4 84.98-35.25 88.53-35.25ZM137.66 0.4Q132.76 0.4 129.16-1.78 125.56-3.95 123.61-8.03 121.66-12.1 121.66-17.65L121.66-17.65Q121.66-23.2 123.61-27.28 125.56-31.35 129.16-33.5 132.76-35.65 137.66-35.65L137.66-35.65Q141.31-35.65 144.36-34.5 147.41-33.35 149.66-31.05L149.66-31.05 148.36-28.6Q145.86-30.9 143.33-31.9 140.81-32.9 137.71-32.9L137.71-32.9Q131.61-32.9 128.23-28.9 124.86-24.9 124.86-17.65L124.86-17.65Q124.86-10.35 128.21-6.35 131.56-2.35 137.71-2.35L137.71-2.35Q140.81-2.35 143.33-3.35 145.86-4.35 148.36-6.65L148.36-6.65 149.66-4.2Q147.41-1.9 144.36-0.75 141.31 0.4 137.66 0.4L137.66 0.4ZM212.09-19.25L212.09-35.25 215.14-35.25 215.14 0 212.09 0 212.09-16.55 189.59-16.55 189.59 0 186.54 0 186.54-35.25 189.59-35.25 189.59-19.25 212.09-19.25ZM284.07 0L280.92 0 276.87-9.4 257.87-9.4 253.82 0 250.67 0 265.97-35.25 268.77-35.25 284.07 0ZM267.37-31.6L259.02-12.1 275.72-12.1 267.37-31.6ZM344.35-5.25L344.35-35.25 347.25-35.25 347.25 0 344.85 0 322.5-30.05 322.5 0 319.6 0 319.6-35.25 322.05-35.25 344.35-5.25ZM401.17-18.05L413.27-18.05 413.27-2Q411.32-0.95 407.97-0.28 404.62 0.4 401.22 0.4L401.22 0.4Q396.07 0.4 392.35-1.75 388.62-3.9 386.65-7.95 384.67-12 384.67-17.65L384.67-17.65Q384.67-23.25 386.62-27.33 388.57-31.4 392.25-33.52 395.92-35.65 400.92-35.65L400.92-35.65Q408.32-35.65 412.92-31.05L412.92-31.05 411.62-28.6Q409.12-30.9 406.57-31.9 404.02-32.9 400.87-32.9L400.87-32.9Q394.62-32.9 391.25-28.93 387.87-24.95 387.87-17.65L387.87-17.65Q387.87-10.2 391.3-6.25 394.72-2.3 401.22-2.3L401.22-2.3Q403.72-2.3 406.12-2.73 408.52-3.15 410.47-3.9L410.47-3.9 410.47-15.45 401.17-15.45 401.17-18.05ZM473.4 0L451.65 0 451.65-35.25 473.4-35.25 473.4-32.6 454.7-32.6 454.7-19.25 472.4-19.25 472.4-16.55 454.7-16.55 454.7-2.65 473.4-2.65 473.4 0Z" opacity="1" transform="matrix(1,0,0,1,0,0)" fill="#000000" class="slogan-text-1" data-fill-palette-color="quaternary" id="text-1"></path></svg></g></svg></g></svg></g></svg></g><g transform="matrix(1,0,0,1,66.19302143175418,0)"><svg viewBox="0 0 80.77239836364875 67.95446993828507" height="67.95446993828507" width="80.77239836364875"><g><svg xmlns="http://www.w3.org/2000/svg" data-name="Layer 1" viewBox="1.4199097156524658 10.561603546142578 97.18010711669922 81.75840759277344" x="0" y="0" height="67.95446993828507" width="80.77239836364875" class="icon-icon-0" data-fill-palette-color="quaternary" id="icon-0"><path d="M97.59 85.37c-2.74 0-4.12 1.48-5.33 2.79s-2 2.16-3.87 2.16-2.75-1-3.87-2.16-2.6-2.79-5.33-2.79-4.12 1.48-5.33 2.79-2 2.16-3.87 2.16-2.75-1-3.87-2.16-2.6-2.79-5.33-2.79-4.11 1.48-5.33 2.79-2 2.16-3.87 2.16-2.75-1-3.87-2.16-2.6-2.79-5.33-2.79-4.12 1.48-5.33 2.79-2 2.16-3.87 2.16-2.75-1-3.87-2.16-2.6-2.79-5.33-2.79-4.12 1.48-5.33 2.79-2 2.16-3.87 2.16-2.75-1-3.87-2.16-2.6-2.79-5.33-2.79a1 1 0 1 0 0 2c1.87 0 2.75 1 3.87 2.16s2.6 2.79 5.33 2.79 4.12-1.48 5.33-2.79 2-2.16 3.87-2.16 2.75 1 3.87 2.16 2.6 2.79 5.33 2.79 4.12-1.48 5.33-2.79 2-2.16 3.87-2.16 2.75 1 3.87 2.16 2.6 2.79 5.33 2.79 4.11-1.48 5.33-2.79 2-2.16 3.87-2.16 2.75 1 3.87 2.16 2.6 2.79 5.33 2.79 4.11-1.48 5.33-2.79 2-2.16 3.87-2.16 2.75 1 3.87 2.16 2.6 2.79 5.33 2.79 4.11-1.48 5.33-2.79 2-2.16 3.87-2.16a1 1 0 0 0 0-2Z" fill="#000000" data-fill-palette-color="quaternary"></path><path d="M16.13 81a4.18 4.18 0 0 1-1.33 0.2c-1.87 0-2.75-1-3.87-2.16S8.34 76.3 5.6 76.3a1 1 0 1 0 0 2c1.87 0 2.75 1 3.87 2.16s2.6 2.79 5.33 2.79 4.12-1.48 5.33-2.79 2-2.16 3.87-2.16 2.75 1 3.87 2.16 2.6 2.79 5.33 2.79 4.12-1.48 5.33-2.79 2-2.16 3.87-2.16 2.75 1 3.87 2.16 2.6 2.79 5.33 2.79 4.11-1.48 5.33-2.79 2-2.16 3.87-2.16 2.75 1 3.87 2.16 2.6 2.79 5.33 2.79 4.11-1.48 5.33-2.79 2-2.16 3.87-2.16 2.75 1 3.87 2.16 2.6 2.79 5.33 2.79 4.11-1.48 5.33-2.79 2-2.16 3.87-2.16a1 1 0 0 0 0-2c-2.74 0-4.12 1.48-5.33 2.79A6.94 6.94 0 0 1 90 80.93c1.42-3.91 3.78-13.46-4-19.68-7.53-6-27-21.65-22.62-38.68 3.25 4.89 10.34 4.8 12.64 4.64 1.09 2.08 4.89 8.33 10.74 7.46A1 1 0 0 0 87.6 34c1.27-3.49-3.2-8.35-4.63-9.79 0.18-1.95 0.17-8.43-7.32-12.08-8.1-3.95-15.49 0.13-19.22 5.92C53 23.33 51.74 41.51 58.29 48.59L59.61 50A40.93 40.93 0 0 0 36.45 45c-15.29 1.46-21.27-5.06-21.32-5.13a1 1 0 0 0-1.75 0.68A57.72 57.72 0 0 0 15.2 52.11a8.39 8.39 0 0 1-5.65 0.6 9.94 9.94 0 0 1-6.28-4.56 1 1 0 0 0-1.85 0.54A44 44 0 0 0 16.13 81Zm69.7-48.3h-0.1c-4.3 0-7.29-5.3-8-6.68a1.79 1.79 0 0 1 0.91-1.2 3.66 3.66 0 0 1 2.67 0.53C83.24 27.26 85.91 30.64 85.83 32.75Zm-49.2 14.2c14.88-1.43 26.64 7.7 27.62 8.49 3.45 4.17 5.89 7.46 5.93 7.5a1 1 0 1 0 1.61-1.19c-0.06-0.08-5.68-7.65-12-14.52-6.1-6.59-4.44-23.73-1.65-28.07 3-4.68 9.19-8.85 16.67-5.21 5.51 2.69 6.26 7 6.26 9.15a5.38 5.38 0 0 0-1.9-0.31 8.8 8.8 0 0 0-6.82-7.21 1 1 0 0 0-0.38 2c4 0.79 5 4.41 5.28 5.86a3.86 3.86 0 0 0-1.31 1.81c-2.24 0.14-9.91 0.2-11.7-5.65a1 1 0 0 0-0.92-0.71 1 1 0 0 0-1 0.64C54.86 38.8 76.61 56.25 84.8 62.82c7.64 6.13 4.07 15.89 3 18.39-1.45-0.19-2.26-1.05-3.25-2.11-1.22-1.31-2.6-2.79-5.33-2.79s-4.12 1.48-5.33 2.79-2 2.16-3.87 2.16-2.75-1-3.87-2.16-2.6-2.79-5.33-2.79a6.13 6.13 0 0 0-4.64 2.07c-18.52-6.7-27.63-25.92-30-31.63A42.17 42.17 0 0 0 36.64 46.94Zm-12.77-0.64c1.4 3.71 10.52 25.8 30.79 33.64a4.05 4.05 0 0 1-3 1.31c-1.86 0-2.75-1-3.87-2.16s-2.6-2.79-5.33-2.79a5.83 5.83 0 0 0-2.89 0.71c-19.44-4.54-23.26-26.91-24-34.23A23.52 23.52 0 0 0 23.87 46.31ZM9.09 54.66a10.48 10.48 0 0 0 6.64-0.59c2.78 9.36 8.8 20.75 21.84 24.51l-0.5 0.53c-1.12 1.21-2 2.16-3.87 2.16s-2.75-1-3.87-2.16S26.75 76.3 24 76.3s-4.12 1.48-5.33 2.79c-0.27 0.29-0.52 0.56-0.78 0.81a40 40 0 0 1-6.61-7.32 16.1 16.1 0 0 0 6.85 1.6h0.49a1 1 0 0 0 1-1 1 1 0 0 0-1-1 15.44 15.44 0 0 1-9.74-3.49A42.62 42.62 0 0 1 6.14 63a27.12 27.12 0 0 0 8 3l0.23 0a1 1 0 0 0 0.22-2c-7.78-1.79-9.41-4.25-9.68-4.8a42.29 42.29 0 0 1-1.34-7.47A11.84 11.84 0 0 0 9.09 54.66Z" fill="#000000" data-fill-palette-color="quaternary"></path></svg></g></svg></g><g></g></svg></g></svg></g></svg></g></svg></g><defs></defs></svg><rect width="342.8515585177538" height="342.8515585177538" fill="none" stroke="none" visibility="hidden"></rect></g></svg></g></svg>